<mxfile host="app.diagrams.net" modified="2024-05-28T18:35:01.766Z" agent="Mozilla/5.0 (Windows NT 10.0; Win64; x64; rv:126.0) Gecko/20100101 Firefox/126.0" etag="qUI5L2iE8JslW_Ud8lVn" version="24.2.8" type="device">
  <diagram name="Page-1" id="4OxZpDwyq2aj9fhtCBpZ">
    <mxGraphModel dx="1843" dy="757" grid="1" gridSize="10" guides="1" tooltips="1" connect="1" arrows="1" fold="1" page="1" pageScale="1" pageWidth="850" pageHeight="1100" math="0" shadow="0">
      <root>
        <mxCell id="0" />
        <mxCell id="1" parent="0" />
        <mxCell id="LWMRoMwv05yNkb9JHjcL-11" style="edgeStyle=orthogonalEdgeStyle;rounded=0;orthogonalLoop=1;jettySize=auto;html=1;strokeColor=#69F0FF;" edge="1" parent="1" source="LWMRoMwv05yNkb9JHjcL-1" target="LWMRoMwv05yNkb9JHjcL-6">
          <mxGeometry relative="1" as="geometry" />
        </mxCell>
        <mxCell id="LWMRoMwv05yNkb9JHjcL-12" style="edgeStyle=orthogonalEdgeStyle;rounded=0;orthogonalLoop=1;jettySize=auto;html=1;strokeColor=#69F0FF;" edge="1" parent="1" source="LWMRoMwv05yNkb9JHjcL-1" target="LWMRoMwv05yNkb9JHjcL-4">
          <mxGeometry relative="1" as="geometry" />
        </mxCell>
        <mxCell id="LWMRoMwv05yNkb9JHjcL-13" style="edgeStyle=orthogonalEdgeStyle;rounded=0;orthogonalLoop=1;jettySize=auto;html=1;entryX=0.5;entryY=0;entryDx=0;entryDy=0;strokeColor=#69F0FF;" edge="1" parent="1" source="LWMRoMwv05yNkb9JHjcL-1" target="LWMRoMwv05yNkb9JHjcL-2">
          <mxGeometry relative="1" as="geometry" />
        </mxCell>
        <mxCell id="LWMRoMwv05yNkb9JHjcL-1" value="Main" style="rounded=0;whiteSpace=wrap;html=1;strokeColor=#69F0FF;" vertex="1" parent="1">
          <mxGeometry x="360" y="250" width="120" height="60" as="geometry" />
        </mxCell>
        <mxCell id="LWMRoMwv05yNkb9JHjcL-8" style="edgeStyle=orthogonalEdgeStyle;rounded=0;orthogonalLoop=1;jettySize=auto;html=1;entryX=0;entryY=0.5;entryDx=0;entryDy=0;strokeColor=#69F0FF;" edge="1" parent="1" source="LWMRoMwv05yNkb9JHjcL-2" target="LWMRoMwv05yNkb9JHjcL-6">
          <mxGeometry relative="1" as="geometry">
            <Array as="points">
              <mxPoint x="240" y="460" />
            </Array>
          </mxGeometry>
        </mxCell>
        <mxCell id="LWMRoMwv05yNkb9JHjcL-2" value="Serial line Listner" style="rounded=0;whiteSpace=wrap;html=1;strokeColor=#69F0FF;" vertex="1" parent="1">
          <mxGeometry x="180" y="340" width="120" height="60" as="geometry" />
        </mxCell>
        <mxCell id="LWMRoMwv05yNkb9JHjcL-10" style="edgeStyle=orthogonalEdgeStyle;rounded=0;orthogonalLoop=1;jettySize=auto;html=1;entryX=1;entryY=0.5;entryDx=0;entryDy=0;strokeColor=#69F0FF;" edge="1" parent="1" source="LWMRoMwv05yNkb9JHjcL-4" target="LWMRoMwv05yNkb9JHjcL-6">
          <mxGeometry relative="1" as="geometry">
            <Array as="points">
              <mxPoint x="570" y="460" />
            </Array>
          </mxGeometry>
        </mxCell>
        <mxCell id="LWMRoMwv05yNkb9JHjcL-14" style="edgeStyle=orthogonalEdgeStyle;rounded=0;orthogonalLoop=1;jettySize=auto;html=1;exitX=1;exitY=0.5;exitDx=0;exitDy=0;shape=flexArrow;strokeColor=#69F0FF;" edge="1" parent="1" source="LWMRoMwv05yNkb9JHjcL-4" target="LWMRoMwv05yNkb9JHjcL-15">
          <mxGeometry relative="1" as="geometry">
            <mxPoint x="740" y="370" as="targetPoint" />
          </mxGeometry>
        </mxCell>
        <mxCell id="LWMRoMwv05yNkb9JHjcL-20" style="edgeStyle=orthogonalEdgeStyle;rounded=0;orthogonalLoop=1;jettySize=auto;html=1;exitX=0.5;exitY=1;exitDx=0;exitDy=0;entryX=1;entryY=0.5;entryDx=0;entryDy=0;strokeColor=#69F0FF;" edge="1" parent="1" source="LWMRoMwv05yNkb9JHjcL-4" target="LWMRoMwv05yNkb9JHjcL-19">
          <mxGeometry relative="1" as="geometry" />
        </mxCell>
        <mxCell id="LWMRoMwv05yNkb9JHjcL-4" value="Server" style="rounded=0;whiteSpace=wrap;html=1;strokeColor=#69F0FF;" vertex="1" parent="1">
          <mxGeometry x="510" y="340" width="120" height="60" as="geometry" />
        </mxCell>
        <mxCell id="LWMRoMwv05yNkb9JHjcL-7" style="edgeStyle=orthogonalEdgeStyle;rounded=0;orthogonalLoop=1;jettySize=auto;html=1;entryX=0.5;entryY=1;entryDx=0;entryDy=0;strokeColor=#69F0FF;" edge="1" parent="1" source="LWMRoMwv05yNkb9JHjcL-6" target="LWMRoMwv05yNkb9JHjcL-4">
          <mxGeometry relative="1" as="geometry" />
        </mxCell>
        <mxCell id="LWMRoMwv05yNkb9JHjcL-9" style="edgeStyle=orthogonalEdgeStyle;rounded=0;orthogonalLoop=1;jettySize=auto;html=1;entryX=0.5;entryY=1;entryDx=0;entryDy=0;strokeColor=#69F0FF;" edge="1" parent="1" source="LWMRoMwv05yNkb9JHjcL-6" target="LWMRoMwv05yNkb9JHjcL-2">
          <mxGeometry relative="1" as="geometry" />
        </mxCell>
        <mxCell id="LWMRoMwv05yNkb9JHjcL-6" value="Coms" style="rounded=0;whiteSpace=wrap;html=1;strokeColor=#69F0FF;" vertex="1" parent="1">
          <mxGeometry x="360" y="430" width="120" height="60" as="geometry" />
        </mxCell>
        <mxCell id="LWMRoMwv05yNkb9JHjcL-15" value="&lt;div&gt;Host&lt;/div&gt;" style="rounded=0;whiteSpace=wrap;html=1;strokeColor=#69F0FF;" vertex="1" parent="1">
          <mxGeometry x="720" y="340" width="120" height="60" as="geometry" />
        </mxCell>
        <mxCell id="LWMRoMwv05yNkb9JHjcL-17" style="edgeStyle=orthogonalEdgeStyle;rounded=0;orthogonalLoop=1;jettySize=auto;html=1;entryX=0;entryY=0.5;entryDx=0;entryDy=0;shape=flexArrow;strokeColor=#69F0FF;" edge="1" parent="1" source="LWMRoMwv05yNkb9JHjcL-16" target="LWMRoMwv05yNkb9JHjcL-2">
          <mxGeometry relative="1" as="geometry">
            <Array as="points">
              <mxPoint x="150" y="280" />
              <mxPoint x="150" y="370" />
            </Array>
          </mxGeometry>
        </mxCell>
        <mxCell id="LWMRoMwv05yNkb9JHjcL-16" value="Peripherals" style="rounded=0;whiteSpace=wrap;html=1;strokeColor=#69F0FF;" vertex="1" parent="1">
          <mxGeometry x="10" y="250" width="120" height="60" as="geometry" />
        </mxCell>
        <mxCell id="LWMRoMwv05yNkb9JHjcL-21" style="edgeStyle=orthogonalEdgeStyle;rounded=0;orthogonalLoop=1;jettySize=auto;html=1;shape=flexArrow;strokeColor=#69F0FF;" edge="1" parent="1" source="LWMRoMwv05yNkb9JHjcL-19">
          <mxGeometry relative="1" as="geometry">
            <mxPoint x="70" y="310" as="targetPoint" />
          </mxGeometry>
        </mxCell>
        <mxCell id="LWMRoMwv05yNkb9JHjcL-19" value="Serial Line Writter" style="rounded=0;whiteSpace=wrap;html=1;strokeColor=#69F0FF;" vertex="1" parent="1">
          <mxGeometry x="180" y="520" width="120" height="60" as="geometry" />
        </mxCell>
        <mxCell id="LWMRoMwv05yNkb9JHjcL-22" value="Sensors" style="rounded=0;whiteSpace=wrap;html=1;strokeColor=#69F0FF;" vertex="1" parent="1">
          <mxGeometry x="440" y="630" width="120" height="60" as="geometry" />
        </mxCell>
        <mxCell id="LWMRoMwv05yNkb9JHjcL-23" value="" style="endArrow=none;dashed=1;html=1;rounded=0;entryX=0.5;entryY=1;entryDx=0;entryDy=0;strokeColor=#69F0FF;" edge="1" parent="1" target="LWMRoMwv05yNkb9JHjcL-22">
          <mxGeometry width="50" height="50" relative="1" as="geometry">
            <mxPoint x="500" y="830" as="sourcePoint" />
            <mxPoint x="460" y="640" as="targetPoint" />
            <Array as="points" />
          </mxGeometry>
        </mxCell>
        <mxCell id="LWMRoMwv05yNkb9JHjcL-24" value="Sensors" style="rounded=0;whiteSpace=wrap;html=1;strokeColor=#69F0FF;" vertex="1" parent="1">
          <mxGeometry x="440" y="830" width="120" height="60" as="geometry" />
        </mxCell>
        <mxCell id="LWMRoMwv05yNkb9JHjcL-25" value="" style="shape=flexArrow;endArrow=classic;html=1;rounded=0;strokeColor=#69F0FF;" edge="1" parent="1" target="LWMRoMwv05yNkb9JHjcL-19">
          <mxGeometry width="50" height="50" relative="1" as="geometry">
            <mxPoint x="500" y="750" as="sourcePoint" />
            <mxPoint x="70" y="310" as="targetPoint" />
            <Array as="points">
              <mxPoint x="240" y="750" />
            </Array>
          </mxGeometry>
        </mxCell>
        <mxCell id="LWMRoMwv05yNkb9JHjcL-26" value="User defined (Example : GPS: )" style="text;html=1;align=center;verticalAlign=middle;whiteSpace=wrap;rounded=0;strokeColor=#69F0FF;" vertex="1" parent="1">
          <mxGeometry x="590" y="630" width="120" height="40" as="geometry" />
        </mxCell>
      </root>
    </mxGraphModel>
  </diagram>
</mxfile>
